REM MD5 a87c19c57b0fc8429b8a486a65d6b5c4
FILE "Nishijin Pachinko Tengoku Vol. 2 (Japan).bin" BINARY
  TRACK 01 MODE2/2352
    INDEX 01 00:00:00
  TRACK 02 AUDIO
    INDEX 00 02:49:55
    INDEX 01 02:51:55
  TRACK 03 AUDIO
    INDEX 00 05:22:27
    INDEX 01 05:24:27
  TRACK 04 AUDIO
    INDEX 00 14:41:05
    INDEX 01 14:43:05
  TRACK 05 AUDIO
    INDEX 00 17:13:18
    INDEX 01 17:15:18
  TRACK 06 AUDIO
    INDEX 00 17:35:14
    INDEX 01 17:37:14
REM LEADOUT 21:21:65
